<svg width="424" height="424" viewBox="0 0 424 424" fill="none" xmlns="http://www.w3.org/2000/svg">
<path fill-rule="evenodd" clip-rule="evenodd" d="M152 409.103L182.5 391.227L191.5 373.351V274.267L185 253.327L169.5 236.473L148.5 228.301L137 247.198L127.5 250.263L109.5 274.267H99L122.5 244.644L132 240.558L140 225.747L130 224.215L97.5 260.988H53.5L36 280.396L19 283.971L16 278.353L32.5 272.735L62.5 230.854L72.5 221.15H58L29 255.37L14.5 260.988L11 255.37L25 248.73L32.5 239.026H10.5L9 230.854H37.5L47 220.129L8 221.15L9 206.339H44L34 199.189H25L30 193.57H40.5L56 206.339H74.5L53.5 186.931H21L12 181.823V172.119L22 177.227L58 178.248L88.5 206.339H129L114 186.931H80L62.5 167.523L12 165.99V156.286H65.5L83.5 175.695H104.5L88.5 148.115L16 147.093V136.368H49L31.5 111.852L35.5 103.169L59.5 136.368H83.5L42.5 90.401L51.5 80.1862L95 129.728L117 167.523V146.072L100.5 116.959L95 115.427L59.5 72.5251L65.5 65.8854H95L130.5 108.277H141L130.5 81.7184L91.5 42.9021L100.5 35.2411L141 77.1217L157.5 109.809V77.1217L127.5 45.4558L117 23.494L123.5 19.9189L134 40.8592L166 75.0788L167 119.513L204.5 162.415V119.513L182 93.4654V75.0788L155 45.4558V10.7255L163 7.6611V42.9021L189.5 69.4606V90.401L204.5 106.234V69.4606L181 44.9451V5.1074L189.5 2.04296V40.8592L204.5 57.7136V0H219.5V57.7136L234.5 40.8592V2.04296L243 5.1074V44.9451L219.5 69.4606V106.234L234.5 90.401V69.4606L261 42.9021V7.6611L269 10.7255V45.4558L242 75.0788V93.4654L219.5 119.513V162.415L257 119.513L258 75.0788L290 40.8592L300.5 19.9189L307 23.494L296.5 45.4558L266.5 77.1217V109.809L283 77.1217L323.5 35.2411L332.5 42.9021L293.5 81.7184L283 108.277H293.5L329 65.8854H358.5L364.5 72.5251L329 115.427L323.5 116.959L307 146.072V167.523L329 129.728L372.5 80.1862L381.5 90.401L340.5 136.368H364.5L388.5 103.169L392.5 111.852L375 136.368H408V147.093L335.5 148.115L319.5 175.695H340.5L358.5 156.286H412V165.99L361.5 167.523L344 186.931H310L295 206.339H335.5L366 178.248L402 177.227L412 172.119V181.823L403 186.931H370.5L349.5 206.339H368L383.5 193.57H394L399 199.189H390L380 206.339H415L416 221.15L377 220.129L386.5 230.854H415L413.5 239.026H391.5L399 248.73L413 255.37L409.5 260.988L395 255.37L366 221.15H351.5L361.5 230.854L391.5 272.735L408 278.353L405 283.971L388 280.396L370.5 260.988H326.5L294 224.215L284 225.747L292 240.558L301.5 244.644L325 274.267H314.5L296.5 250.263L287 247.198L275.5 228.301L254.5 236.473L239 253.327L232.5 274.267V373.351L241.5 391.227L272 409.103L261 417.274L219.5 400.931V422H212H204.5V400.931L163 417.274L152 409.103ZM77 253.327L89 238.005H105.5L91 253.327H77ZM70.5 235.962L59 251.795H67.5L86.5 229.322H112.5L118.5 221.661H86.5L70.5 235.962ZM195.5 228.811V191.017L185.5 168.033L143 119.513L110 117.47L126 144.029V177.737L155.5 206.85V168.033L139 150.158L140.5 130.239L147.5 135.346V146.582L163.5 166.501V210.425L181.5 216.043L195.5 228.811ZM90 74.568H71L97.5 107.766H114L105.5 92.9547L90 74.568ZM347 253.327L335 238.005H318.5L333 253.327H347ZM353.5 235.962L365 251.795H356.5L337.5 229.322H311.5L305.5 221.661H337.5L353.5 235.962ZM228.5 228.811V191.017L238.5 168.033L281 119.513L314 117.47L298 144.029V177.737L268.5 206.85V168.033L285 150.158L283.5 130.239L276.5 135.346V146.582L260.5 166.501V210.425L242.5 216.043L228.5 228.811ZM334 74.568H353L326.5 107.766H310L318.5 92.9547L334 74.568Z" fill="#0FECFA"/>
<path d="M211.5 420V2" stroke="black"/>
<path d="M211.5 420V183L274 114L287.5 79.5L327.5 39.5" stroke="black"/>
<path d="M211.5 419V183L274 114L328 111.5L362 70.5" stroke="black"/>
<path d="M211.5 421C211.5 357.149 211.5 264.5 211.5 264.5L257 223L293 215H415" stroke="black"/>
<path d="M211.5 420C211.5 356.149 211.5 264.5 211.5 264.5L257 223L276 218.5L307 179H342L360 162H411.5" stroke="black"/>
<path d="M211.5 420V264.5L257 223L276 218.5L307 179L335 131.5L376.5 85" stroke="black"/>
<path d="M211.5 420V264.5L257 223L293 215H335.5L367.5 183.5H401L412 177" stroke="black"/>
<path d="M211.5 420C211.5 356.149 211.5 264.5 211.5 264.5L257 223L293 215L329.5 256H372.5L390 276.5L406 281.5" stroke="black"/>
<path d="M211.5 419.5V183.5L149 114.5L135.5 80L95.5 40" stroke="black"/>
<path d="M211.5 419.5C211.5 323.822 211.5 183.5 211.5 183.5L149 114.5L95 112L61 71" stroke="black"/>
<path d="M211.5 418.5V265L166 223.5L130 215.5H8" stroke="black"/>
<path d="M211.5 419.5V265L166 223.5L147 219L116 179.5H81L63 162.5H11.5" stroke="black"/>
<path d="M211.5 419.5V265L166 223.5L147 219L116 179.5L88 132L46.5 85.5" stroke="black"/>
<path d="M211.5 418.5V265L166 223.5L130 215.5H87.5L55.5 184H22L11 177.5" stroke="black"/>
<path d="M211.5 420.5V265L166 223.5L130 215.5L93.5 256.5H50.5L33 277L17 282" stroke="black"/>
<path fill-rule="evenodd" clip-rule="evenodd" d="M212 424C329.084 424 424 329.084 424 212C424 94.9156 329.084 0 212 0C94.9156 0 0 94.9156 0 212C0 329.084 94.9156 424 212 424ZM212.492 414.162C323.871 414.162 414.162 323.871 414.162 212.492C414.162 101.112 323.871 10.8213 212.492 10.8213C101.112 10.8213 10.8213 101.112 10.8213 212.492C10.8213 323.871 101.112 414.162 212.492 414.162Z" fill="#0FECFA"/>
</svg>
