<svg width="408" height="428" viewBox="0 0 408 428" fill="none" xmlns="http://www.w3.org/2000/svg">
<path fill-rule="evenodd" clip-rule="evenodd" d="M144 409.103L174.5 391.227L183.5 373.351V274.267L177 253.327L161.5 236.473L140.5 228.301L129 247.198L119.5 250.263L101.5 274.267H91L114.5 244.644L124 240.558L132 225.747L122 224.215L89.5 260.988H45.5L28 280.396L11 283.971L8 278.353L24.5 272.735L54.5 230.854L64.5 221.15H50L21 255.37L6.5 260.988L3 255.37L17 248.73L24.5 239.026H2.5L1 230.854H29.5L39 220.129L0 221.15L1 206.339H36L26 199.189H17L22 193.57H32.5L48 206.339H66.5L45.5 186.931H13L4 181.823V172.119L14 177.227L50 178.248L80.5 206.339H121L106 186.931H72L54.5 167.523L4 165.99V156.286H57.5L75.5 175.695H96.5L80.5 148.115L8 147.093V136.368H41L23.5 111.852L27.5 103.169L51.5 136.368H75.5L34.5 90.401L43.5 80.1862L87 129.728L109 167.523V146.072L92.5 116.959L87 115.427L51.5 72.5251L57.5 65.8854H87L122.5 108.277H133L122.5 81.7184L83.5 42.9021L92.5 35.2411L133 77.1217L149.5 109.809V77.1217L119.5 45.4558L109 23.494L115.5 19.9189L126 40.8592L158 75.0788L159 119.513L196.5 162.415V119.513L174 93.4654V75.0788L147 45.4558V10.7255L155 7.6611V42.9021L181.5 69.4606V90.401L196.5 106.234V69.4606L173 44.9451V5.1074L181.5 2.04296V40.8592L196.5 57.7136V0H211.5V57.7136L226.5 40.8592V2.04296L235 5.1074V44.9451L211.5 69.4606V106.234L226.5 90.401V69.4606L253 42.9021V7.6611L261 10.7255V45.4558L234 75.0788V93.4654L211.5 119.513V162.415L249 119.513L250 75.0788L282 40.8592L292.5 19.9189L299 23.494L288.5 45.4558L258.5 77.1217V109.809L275 77.1217L315.5 35.2411L324.5 42.9021L285.5 81.7184L275 108.277H285.5L321 65.8854H350.5L356.5 72.5251L321 115.427L315.5 116.959L299 146.072V167.523L321 129.728L364.5 80.1862L373.5 90.401L332.5 136.368H356.5L380.5 103.169L384.5 111.852L367 136.368H400V147.093L327.5 148.115L311.5 175.695H332.5L350.5 156.286H404V165.99L353.5 167.523L336 186.931H302L287 206.339H327.5L358 178.248L394 177.227L404 172.119V181.823L395 186.931H362.5L341.5 206.339H360L375.5 193.57H386L391 199.189H382L372 206.339H407L408 221.15L369 220.129L378.5 230.854H407L405.5 239.026H383.5L391 248.73L405 255.37L401.5 260.988L387 255.37L358 221.15H343.5L353.5 230.854L383.5 272.735L400 278.353L397 283.971L380 280.396L362.5 260.988H318.5L286 224.215L276 225.747L284 240.558L293.5 244.644L317 274.267H306.5L288.5 250.263L279 247.198L267.5 228.301L246.5 236.473L231 253.327L224.5 274.267V373.351L233.5 391.227L264 409.103L253 417.274L211.5 400.931V428H196.5V400.931L155 417.274L144 409.103ZM69 253.327L81 238.005H97.5L83 253.327H69ZM62.5 235.962L51 251.795H59.5L78.5 229.322H104.5L110.5 221.661H78.5L62.5 235.962ZM187.5 228.811V191.017L177.5 168.033L135 119.513L102 117.47L118 144.029V177.737L147.5 206.85V168.033L131 150.158L132.5 130.239L139.5 135.346V146.582L155.5 166.501V210.425L173.5 216.043L187.5 228.811ZM82 74.568H63L89.5 107.766H106L97.5 92.9547L82 74.568ZM339 253.327L327 238.005H310.5L325 253.327H339ZM345.5 235.962L357 251.795H348.5L329.5 229.322H303.5L297.5 221.661H329.5L345.5 235.962ZM220.5 228.811V191.017L230.5 168.033L273 119.513L306 117.47L290 144.029V177.737L260.5 206.85V168.033L277 150.158L275.5 130.239L268.5 135.346V146.582L252.5 166.501V210.425L234.5 216.043L220.5 228.811ZM326 74.568H345L318.5 107.766H302L310.5 92.9547L326 74.568Z" fill="#0FECFA"/>
</svg>
